<?xml version="1.0" encoding="UTF-8"?>
<svg id="a" data-name="图层_1" xmlns="http://www.w3.org/2000/svg" viewBox="0 0 1024 1024">
  <defs>
    <style>
      .b {
        fill: #860854;
      }

      .c {
        fill: #d72f66;
      }

      .d {
        fill: #8f0f48;
      }

      .e {
        fill: #b4288f;
      }

      .f {
        fill: #a727a2;
      }

      .g {
        fill: #ca2c73;
      }

      .h {
        fill: #e53259;
      }

      .i {
        fill: #c12b80;
      }

      .j {
        fill: #d3242f;
      }

      .k {
        fill: #c72b7a;
      }

      .l {
        fill: #a225ab;
      }

      .m {
        fill: #a726a2;
      }

      .n {
        fill: #b02792;
      }

      .o {
        fill: #e1315c;
      }

      .p {
        fill: #ea3651;
      }

      .q {
        fill: #e43359;
      }

      .r {
        fill: #cc1936;
      }

      .s {
        fill: #840b53;
      }

      .t {
        fill: #a628a2;
      }

      .u {
        fill: #d62e67;
      }

      .v {
        fill: #e83553;
      }

      .w {
        fill: #cf2d73;
      }

      .x {
        fill: #bf2a80;
      }

      .y {
        fill: #fefefe;
      }

      .z {
        fill: #c7101c;
      }

      .aa {
        fill: #da2f66;
      }

      .ab {
        fill: #cb0f1a;
      }

      .ac {
        fill: #c61428;
      }

      .ad {
        fill: #a51365;
      }
    </style>
  </defs>
  <path class="y" d="M1024,1024H0V0c341.33,0,682.67,0,1024,0v1024Z"/>
  <path class="m" d="M821.53,626.14c-7.91,9.72-16.94,18.33-26.55,26.31-22.99,19.06-48.86,32.73-77.61,40.87-11.95,3.39-24.05,5.99-36.49,6.75-1.99.12-3.83,1.26-5.89.74-13.26-.75-26.53-.15-39.79-.31-5.64-.07-11.29-.02-16.92,0-.93-.03-1.65-.34-1.33-1.45.43-1.51,2.17-2.04,2.96-4.08-5.55-6.17-6.03-15.32-11.39-22.06-.62-.78-1.02-1.79-.95-2.8.57-8.39-1.32-16.56-2.13-24.83-.39-3.96.88-5.57,4.89-5.32,2.27.14,4.69.51,6.78-1.01.82-1.94.4-3.96.4-5.93.03-77.16.02-154.31.04-231.47,0-2.13-.38-4.31.63-7,17.07-.08,34.31-.01,51.37-.04,1.55,2.18.92,4.24.92,6.15.04,77.16.03,154.31.06,231.47,0,1.96-.53,4,.5,5.88,12.63-1.01,24.68-4.56,36.23-9.43,34.63-14.6,62.19-37.52,81.12-70.33.25-.43.59-.8.89-1.2,1.96,1.12,1.13,4.6,4.5,4.87,1.4.11,1.07,2.54.84,4.01-1.38,8.88-1.4,17.92-3.12,26.75-1.37,7.09,1.25,13.67,3.49,19.85,1.13,3.12,4.24,6.23,6.22,9.59,1.51,2.57,5.19,1.79,7.94,1.75,7.08-.09,7.43.27,4.88,6.49,2.69-1.08,3.48-5.53,7.51-4.21Z"/>
  <path class="l" d="M821.53,626.14c-4.01,1.17-5.44,5.62-9.1,7.29-1.51-3.21.78-5.02,2.32-6.98-.07-1.52-1.17-2.8-2.11-2.06-3.32,2.61-6.69.18-9.99.39-2.14.14-4.16-1.65-4.29-4.46-.18-3.89-1.16-4.82-5.11-4.97-.42-5.41-.93-10.84-3.8-15.68-.38-.63.04-1.25.11-1.89,1.18-10.12,2.38-20.24,3.38-30.37.16-1.6,1.56-3.03.68-4.68-1.67-1.8-3.47.44-5.08-.21-.98-2.06,2.45-3.4.71-5.47,2.73-5.38,5.46-10.77,8.19-16.15,4.73-7.71,6.84-16.38,9-24.99,3.89-15.52,5.97-31.27,5.58-47.32-.07-2.97-.43-6,.74-8.9.53-1.3.25-2.52-.4-3.81-1.2-2.42-2.4-4.94,1.07-6.78,1.14-.61.99-2.01.99-3.18,0-8.95.91-17.92-.39-26.85-.2-1.35-.22-2.75.53-3.89,1.34-2.03,1.17-3.93.36-6.13-2.19-6,1.71-11.52.54-18.08-3.08-1.76-2.67-6.53-3.83-10.28-.69-2.22,2.31-4.04,4.99-4.64,4.73-1.05,6.88-3.96,5.45-8.5-1.22-3.89-1.1-7.91-2.13-11.76-.73-2.73.11-4.77,2.86-5.42,3.12-.74,4.34-4.95,8.2-3.94.02-3.22-.93-6.41,2.1-8.42,1.78-.37,2.09,1.6,3.38,1.88,11.57,14.67,20.29,30.97,27.41,48.15,6.8,16.4,11.33,33.51,13.96,51.02,2.6,17.3,2.94,34.72,1.43,52.23-2.28,26.28-8.54,51.48-19.34,75.5-9.76,21.73-22.05,41.9-38.43,59.37Z"/>
  <path class="t" d="M836.49,339.88c-1.05-.41-2.09-.82-3.13-1.23-1.91,4.24-1.9,4.6.22,9.69-1.71,0-3.42-.37-5.21-1.25-.57,4.53-5.01,3.94-8.23,5.67,3.07,4.76.98,10.19,3.63,14.94,1.41,2.53-.45,5.83-1.96,8.44-.57.99-1.7,1.62-3,1.21-3.86-1.22-5.31,1.41-6.73,3.79.32,2.56,2.7,1.29,3.61,2.65,1.06,1.82-1.47,2.71-1.4,4.3,1.04,3.31,4.63.81,6.27,2.68-.46,1.79-2,.96-2.91,1.48-1.15.65-2.16,1.91-1.41,2.78,2.03,2.35.46,4.3-.18,6.39-1.02,3.29-1.16,6.46,1.15,9.34,1.16,1.45.97,2.87-.55,3.84-1.3.83-2.07,1.97-1.57,3.31,1.47,3.99.49,8.02.72,12,.37,6.46-.45,12.89.16,19.32.06.6-.32,1.24-.4,1.53-1.37,1.57-2.25-.6-3.38.11-.19,1.28-.73,3,.54,3.67,3.52,1.84,2.63,4.02.93,6.45-.95,1.35-.67,2.89-.63,4.36.43,17.99-2.18,35.56-6.49,53.01-1.56,6.32-4.05,12.23-5.99,18.37-.5,1.58-.87,3.68-3.09,4.18,4.85-12.14,8.75-24.53,10.91-37.47,1.75-10.5,2.76-21.02,2.89-31.67.42-36.3-10.54-68.92-32.84-97.34-22.53-28.7-51.35-48.64-86.85-58.3-5.22-1.42-10.5-2.65-15.75-3.97-6.54-1.67-13.21-2.6-19.93-2.61-11.81,0-23.6-.26-35.4-.54-2.27-.05-4.54-.19-5.35-2.69-.8-2.47,1.19-3.7,2.95-4.55,3.74-1.81,3.9-5.29,3.95-8.53.09-6.52,1.24-12.87,1.96-19.3.6-5.28.62-10.76-.95-16.21-1.01-3.52-1.48-7.66.5-11.36,9.71-.64,19.42-.55,29.13-.05,4.11.21,8.21.45,12.31-.12,37.74,2.84,72.91,13.88,105.51,33.1,22.14,13.06,41.23,29.67,57.64,49.41.51.62.78,1.43,1.17,2.15-1.18,1.08-1.96.09-2.79-.5.73,1.2,1.68,1.36,2.83.49,3.05,2.48,5.08,5.77,7.17,9.01Z"/>
  <path class="n" d="M623,247.02c.65,2.97,2.61,5.91-.14,9.04,2.66,2.57,4.23,5.31,2.33,8.91-.45.86-.12,1.94.24,2.91.88,2.43.64,4.82.03,7.32-1.31,5.4-2.31,10.8-1.66,16.5.3,2.64-.79,5.5-1.02,8.31-.14,1.69-1.97,2.23-3.34,2.67-1.63.53-3.14,1.02-3.96,2.68.87,2.33,2.72,2.48,4.82,2.67,13.1,1.19,26.24.68,39.35,1.05,5.52.16,11,1.46,16.5,2.27.02,0,.05.31,0,.43-.07.14-.23.24-.35.35-25.2-3.62-50.57-1.47-75.85-2.3-1.77-.7-3.62-.35-5.43-.35-20.44-.01-40.89-.08-61.33,0-4.99.02-9.94-.77-14.94-.56-2.3.1-4.39-.63-5.35-2.9-.97-2.29,1.05-3.27,2.43-4.33,1.67-1.29,2.12-2.96,1.81-4.86-1.08-6.66.57-13.18.75-19.73.22-8.21.38-16.61-1.47-24.79-.44-1.96-1.96-4.05.21-5.96,1.79-.56,3.63-.36,5.45-.36,31.57-.01,63.13-.02,94.7.02,2.09,0,4.35-.63,6.22.99Z"/>
  <path class="x" d="M516.01,247.02c2.1,4.74,3.31,9.62,3.05,14.9-.2,3.94-.51,7.95.85,11.83.31.89.42,2.17.01,2.94-2.26,4.23-.93,8.93-1.91,13.3-.36,1.61-.38,3.08.25,4.77,1.9,5.15,1.16,6.6-3.87,9.11-.41.2-.72.61-1.29,1.11,1.47,2.5,3.73,3,6.29,3.02,9.38.08,18.74.61,28.13.58,11.37-.04,22.84-.04,34.25.39,4.81.18,9.64,0,14.45.05,1.28.01,2.7-.42,3.72.83-25.72.05-51.45.13-77.17.15-12.94,0-25.89-.1-38.83-.16-7.45-.78-14.92-.42-22.37-.27-7.63.15-15.22-.61-22.86-.27-6.41.29-6.86-1.88-7.21-8.54-.54-10.03,2.02-20.1-.6-30.05-.38-1.45-.47-2.99-.24-4.46.71-4.43-.42-8.04-3.68-11.3-2.5-2.5-3.56-5.65-.32-8.66,9.79-.63,19.58-.22,29.36-.26,18.09-.08,36.18-.04,54.28,0,1.93,0,4.02-.55,5.71.99Z"/>
  <path class="g" d="M426.02,247.02c-.14,3.36-.21,6.34,3.51,8.5,2.5,1.45,3.38,4.65,2.84,7.87-.55,3.27.32,6.55.39,9.73.12,5.63,2.34,11.32.13,16.96-.36.91-1.04,2.08-.76,2.81,1.73,4.44,1.93,8.82-.52,13.16,3.72,1.62,6.68,3.05,10.41,2.05,3.42-.92,6.77,1.07,10.3.98,8.97-.23,17.95-.11,26.92-.04,1.58.01,3.35-.64,4.72.8-31.33,0-62.67,0-94,0-8.62-.42-17.24-.82-25.87-.86-6.33-.03-8.21-2.2-7.83-8.4.24-3.83-1.69-7.31-1.87-11.2-.28-6.1-1.26-12.22-1.89-18.29-.77-7.39-1.31-14.84-2.17-22.24-.12-1,.22-1.98,1.28-2.5,13.47-.76,26.94-.13,40.41-.34,9.61,0,19.21-.03,28.82.02,1.77,0,3.68-.46,5.2.99Z"/>
  <path class="w" d="M386.4,479.86c11.12,11,22.29,21.95,33.34,33.02,9.74,9.76,19.35,19.66,29.23,29.71,15.89-15.93,31.15-31.27,46.46-46.56,8.12-8.11,16.33-16.14,24.5-24.21,1.64,3.4-1.39,4.77-3.07,6.47-16.97,17.1-33.98,34.16-51.12,51.1-2.85,2.82-5.02,5.26-2.21,9.27.64.91.89,2.35.51,3.39-2.34,6.25-.04,12.86-1.63,19.18-.78,3.07-.84,6.25.38,9.33,1.7,4.29,3.54,4.79,6.81,1.59,5.47-5.34,10.77-10.85,16.27-16.16,1.43-1.37,2.8-3.62,5.42-1.89-13.9,13.85-27.8,27.69-42.02,41.85-12.22-12.07-24.29-23.99-36.35-35.9-3.01-4.45-7.23-7.76-10.94-11.54-8.72-8.88-17.6-17.6-26.52-26.74,2.49-2.43,2.21-5.01,1.41-7.89-1.54-5.52-1.33-11.18-.7-16.84.49-4.4-.04-8.86,1.01-13.26.55-2.3-.36-4.52-1.7-6.59-1.26-1.95-2.33-4.13-.08-6.42,4.45,2.13,6.43,7.21,11,9.09Z"/>
  <path class="aa" d="M386.4,479.86c-2.23.46-3.29-1.27-4.55-2.52-1.98-1.98-3.88-4.04-5.99-6.25-1.32,1.99-.89,3.42.02,4.53,3.43,4.18,4.01,8.54,1.29,13.28-.15.27-.19.67-.12.98,1.85,7.79-1.73,15.74.83,23.57.61,1.87,1.42,3.68,1.89,5.19.06,2.74-2.69,1.07-3.24,2.7-.15.95.71,1.38,1.26,1.93,11.02,11.05,22.08,22.05,33.05,33.16.93.94,3.11,1.47,2.08,3.64-12.47-12.23-24.97-24.43-37.41-36.69-24.79-24.42-49.53-48.89-74.39-73.25-2.2-2.16-3.18-4.24-3.15-7.35.16-15.32.07-30.64.08-45.96,0-1.13-.25-2.33.75-3.36,1.74-.02,2.55,1.4,3.53,2.37,27.85,27.73,55.67,55.49,83.49,83.25.23.23.39.53.58.8Z"/>
  <path class="u" d="M350.99,247c.99,5.34,3.1,10.76,2.75,16.01-.7,10.3,3.3,20.11,2.23,30.31-.27,2.58,2.13,3.61,2.82,5.55-.36,1.73-1.26,3.11-2.4,4.36,1.96,3.78,4.87,5.11,8.98,4.82,7.63-.54,15.18,1.66,22.84.97.7-.06,1.27.29,1.73.82-28.66,0-57.32,0-85.98,0-3.83-1.66-7.86-.61-11.8-.83-4.91-.28-7.85-2.15-7.24-6.77,1.04-7.84-1.9-15-2.39-22.5-.43-6.53-1.37-13.05-.36-19.65.37-2.41-.06-4.96-.64-7.4-.75-3.18.06-5.58,3.49-6.58,20.58-.23,41.16-.05,61.74-.08,1.46,0,3.03-.24,4.23.98Z"/>
  <path class="v" d="M204.04,309.85h-61.3v-63.96c.87-1.13,2.12-.78,3.23-.79,18.95-.04,37.91-.06,56.86-.05,1.04,0,2.4-.63,2.95.98-.67,14.97-.12,29.94-.29,44.91-.05,4.83.02,9.66-.03,14.49-.02,1.59.53,3.43-1.43,4.41Z"/>
  <path class="o" d="M284,247.01c-1.24,1.9-1.83,3.3-.95,6.12,1.06,3.41,2.46,7.93-.96,11.75,1.92,2.59,1.71,5.42,1.43,8.7-.35,4.1-.2,8.56,1.31,12.59,1.33,3.57,2.94,6.9,1.4,10.91-.62,1.61-.31,3.63-.19,5.45.24,3.74,1.84,5.27,5.7,5.45,2.66.12,5.33.06,7.99.02,1.72-.03,3.37,0,4.25,1.86-25.48.06-50.96.13-76.44.16-.89,0-2.07.38-2.38-1.06.84-7.95.26-15.92.34-23.87.12-11.13.01-22.27.05-33.4,0-1.62-.43-3.33.53-4.81,1.18-.97,2.54-.85,3.86-.86,16.62-.03,33.23-.03,49.85,0,1.47,0,3.03-.23,4.23.99Z"/>
  <path class="e" d="M563.03,429c11.66-12.41,23.87-24.26,35.91-36.33,1.56,1.51,1.09,2.72,1.1,3.79.03,15.63,0,31.27.05,46.9,0,2.11-.44,3.7-2.04,5.28-19.77,19.5-39.46,39.09-59.18,58.65-.58.58-1.26,1.07-1.89,1.6-1.67.77-2.47,2.72-4.24,3.19-.92-.03-1.46-.65-1.39-1.24.66-6.13-1.41-11.89-2.39-17.79-.84-5.02.59-9.93,1.01-14.87.38-4.4.05-8.22-3.1-11.3.39-2.27,2.08-3.25,3.32-4.51,9.72-9.79,19.5-19.52,29.24-29.29,1.28-1.28,2.79-2.39,3.61-4.08Z"/>
  <path class="i" d="M563.03,429c.97,2.26-1.32,2.69-2.27,3.65-11,11.14-22.11,22.17-33.5,33.54,3.95,2.67,4.6,6,4.03,10.6-.57,4.54-1.47,9.16-1.29,13.82.07,1.81-.25,3.67,1.21,5.18.92.95.79,2.07.31,3.25-.3.74-.65,2.16-.38,2.33,4.55,2.86,1.13,6.56.7,9.78,2.64.57,2.69-3.23,5.14-2.26-7.16,7.17-14.28,14.36-21.49,21.49-8.03,7.94-16.14,15.82-24.21,23.72-2.22-.34-3.26,1.4-4.51,2.65-6.59,6.59-13.13,13.22-19.63,19.77-5.05-2.65-7.01-6.85-6.48-12.1.49-4.85,2.64-9.68.48-14.67-.48-1.1.11-2.26.66-3.33,2.31-4.56,1.37-8.54-3.29-12.69,1.57-1.11,3.1-1.9,4.27-3.06,18.05-17.98,36.06-36,54.04-54.04,1.35-1.36,3.34-2.4,3.12-4.82,14.13-14.51,28.4-28.88,43.1-42.83Z"/>
  <path class="j" d="M142.62,700.84v-370.66h63.2v370.66h-63.2Z"/>
  <path class="ac" d="M415,700.86c-25.82.06-51.64.14-77.47.16-35.66.02-71.31,0-106.97,0-1.65,0-3.29,0-5.25,0v-306.7h55.57v243.9c2.05,1.31,3.92.76,5.68.76,60.48.04,120.96.05,181.44.06,1.66,0,3.33.1,4.99.15.12.72-.15,1.25-.81,1.58-1.54.77-3.22.81-4.88.81-15.15,0-30.3.14-45.46-.05-37.93-.13-75.86.29-113.8.12-1.66,0-3.33.1-4.99-.07-5.83-.25-11.65-.11-17.48-.02-5.42.09-6.82-1.31-7.15-6.65-.14-2.33-.07-4.66-.07-6.99,0-73.96,0-147.91,0-221.87q0-9.38-9.29-9.39c-11.49,0-22.99-.03-34.48,0-6.7.02-6.96.27-6.96,7.1-.02,42.48,0,84.95-.01,127.43,0,52.8,0,105.61,0,158.41q0,8.79,8.85,8.8c18.15.08,36.31-.2,54.46.15,33.87-.24,67.73-.27,101.59,0,7.27.25,14.59-.94,21.81.77.66.34.87.87.64,1.57Z"/>
  <path class="b" d="M472.97,639.96c.01-.26.02-.52.03-.78,15.66-.05,31.31-.13,46.97-.14,30.82-.02,61.64,0,92.46,0,1.32,0,2.63,0,4.38,0v-244.69h54.21v243.66c-1.91-1.78-.97-4.09-.97-6.12-.05-77-.03-153.99-.05-230.99,0-1.78.46-3.65-.6-5.63h-50.65c-1.3,1.94-.71,3.99-.72,5.92-.03,77.66,0,155.33-.08,232.99,0,1.97,1.56,4.87-1.94,5.84-5.05.74-10.19,1.37-15.21,1.44-24.57.33-49.15.28-73.72.11-15.53-.51-31.05.31-46.58.04-2.59-.04-5.35.46-7.52-1.64Z"/>
  <path class="g" d="M225.24,245.97c.86-1.61,2.35-.87,3.56-.87,122.8-.02,245.61,0,368.41,0,15.16,0,30.33-.03,45.49.01,3.47.01,6.98-.27,10.39.75-1.66,1.19-3.55.59-5.33.59-85.23.03-170.46.03-255.68.03-53.82,0-107.64,0-161.46-.03-1.79,0-3.67.51-5.38-.49Z"/>
  <path class="ad" d="M391.98,246.1c60.75-.03,121.49-.07,182.24-.09,25.13,0,50.26.02,75.39.02,1.16,0,2.32-.11,3.48-.17,3.96.11,7.91.23,11.87.34-1.56,1.45-3.47.77-5.22.78-12.25.06-24.5.03-36.75.04-35.66,0-71.32,0-106.98,0-30,0-59.99,0-89.99,0-11.35-.02-22.7-.05-34.04-.07-.31-.19-.42-.38-.31-.56.1-.19.21-.28.32-.28Z"/>
  <path class="d" d="M415,700.86c0-.27.01-.55.02-.82,1.53-1.65,3.6-1.62,5.57-1.62,25.79,0,51.59-.23,77.38.1,36.97-.34,73.95-.08,110.93-.12,2.76,0,5.72-.58,8.11,1.55,17.57.03,35.15.03,52.72.11,1.75,0,3.67-.64,5.24.75-26.28.08-52.56.22-78.84.23-58.89.03-117.77,0-176.66-.03-1.49,0-2.99-.1-4.48-.16Z"/>
  <path class="r" d="M391.98,246.1c.01.28.01.56,0,.85-13.66.02-27.33.04-40.99.05h-66.99c-19.11,0-38.21,0-57.07,0-1.39,2.15-.88,4.03-.88,5.8-.04,16.98,0,33.97-.06,50.95,0,1.74.76,3.68-.84,5.19-.22-20.99-.38-41.99.1-62.98,55.58.04,111.16.09,166.74.13Z"/>
  <path class="z" d="M280.84,330.36v50.45h-55.63v-50.45h55.63Z"/>
  <path class="s" d="M617.14,380.72v-50.43h53.59v50.43h-53.59Z"/>
  <path class="ab" d="M204.04,309.85c1.24-1.78.98-3.81.96-5.79-.26-19.12.51-38.25-.35-57.36,0-.2.74-.44,1.14-.66.07,20.46.14,40.92.21,61.38,0,1.32.22,2.84-1.95,2.44Z"/>
  <path class="e" d="M617.02,699.95c-39.66,0-79.33-.02-118.99-.02,1.37-4.47-.42-8.35-1.78-12.51-1.45-4.42-1.01-9.27-.3-13.86.71-4.6,1.59-9.22,1.65-13.85.08-6.73,4.82-11.98,5.07-18.78,8.21-1.19,16.34.39,24.34-.88,29.67-.02,59.33-.03,89-.05-2.85,2.35-6.48-.08-9.32,1.41-.2,9.64,3.56,18.86,1.91,28.47-.19,1.09.16,2.27.97,2.63,4.03,1.8,4.02,6,5.04,9.19,1.69,5.27,4.31,9.75,7.9,13.67-.59,3.1-4.6,1.9-5.48,4.56Z"/>
  <path class="l" d="M810.58,441c-.46-3.62-3.36-6.83-1.57-11.9,3.4,4.24,1.31,8.32,1.57,11.9Z"/>
  <path class="l" d="M829.33,330.86c-.45,1.32-.94,2.51-2.7,1.42-1.67-1.04-2.72-2.41-3.19-4.7,2.96-.08,3.54,3.16,5.85,3.28h.04Z"/>
  <path class="l" d="M811.47,443.57c1.58.71,1.89,1.68.79,3.15-1.68-.72-1.36-1.87-.79-3.15Z"/>
  <path class="p" d="M144.45,331.26h60.18v368.33h-60.18v-368.33Z"/>
  <path class="h" d="M291,699.91h-64.68v-304.52h53.55v244.73h23.07c-.69,2.71-3.01,1.97-4.81,2.23-2.4.35-4.97-.56-7.16.78-.96,1.52-.64,3.03-.39,4.47,2.13,12.04,1.37,23.96-.86,35.92-.78,4.19-.89,8.58,1.06,12.68.55,1.17,1.26,2.41.22,3.71Z"/>
  <path class="k" d="M527.01,640.06c-1.31,1.55-3.1.89-4.69.91-6.14.07-12.29.03-18.99.03,1.27,4.13.13,7.26-2.62,10.01-1.53,1.53-.72,3.84-1.01,5.77-1.1,7.09-1.88,14.24-2.68,21.37-.73,6.51.53,12.54,5.12,17.84-1.63,1.32-4.34,1.28-4.11,3.94-27.67.04-55.34.08-83.01.12-7.35-.04-14.69-.07-22.04-.11-7.01-6.89-8.07-15.88-8.23-24.93-.21-11.49,4.79-22.3,4.26-34.11,11.46-1.04,22.24.36,32.93-.82,17.01-.04,34.02-.07,51.03-.11,18.01.03,36.03.06,54.04.1Z"/>
  <path class="c" d="M421.94,640.07c-1.47,1.67-3.43.87-5.15.89-8.75.09-17.51.04-26.38.04-.56,5.81-.89,11.14-1.75,16.46-.83,5.14-3.03,10.12-2.65,15.47.58,8.29.36,16.79,6.13,23.73.83,1,.87,2.1.84,3.27-34,0-67.99-.01-101.99-.02-3.47-4.77-2.84-10.28-3.11-15.71-.13-2.69,3.2-4.6,1.24-7.43,2.75-5.62-.49-11.8,1.67-17.48.73-1.91-.6-3.54-.8-5.33-.45-4.09-1.04-8.16-1.6-12.44,4.76-1.62,9.91.77,14.54-1.4,39.67-.02,79.34-.04,119.01-.05Z"/>
  <path class="q" d="M226.16,379.58v-48.15h53.53v48.15h-53.53Z"/>
  <path class="f" d="M618.41,331.15h51.21v48.54h-51.21v-48.54Z"/>
</svg>